<svg width="32" height="32" viewBox="0 0 32 32" fill="none" xmlns="http://www.w3.org/2000/svg">
<path d="M0 10C0 4.47715 4.47715 0 10 0H22C27.5228 0 32 4.47715 32 10V22C32 27.5228 27.5228 32 22 32H10C4.47715 32 0 27.5228 0 22V10Z" fill="#FF6262"/>
<path fill-rule="evenodd" clip-rule="evenodd" d="M15.9998 24.9582C20.9474 24.9582 24.9582 20.9474 24.9582 15.9998C24.9582 11.0523 20.9474 7.0415 15.9998 7.0415C11.0523 7.0415 7.0415 11.0523 7.0415 15.9998C7.0415 20.9474 11.0523 24.9582 15.9998 24.9582ZM15.9998 9.54134C19.5666 9.54134 22.4581 12.4329 22.4582 15.9997C22.4582 19.5665 19.5667 22.458 15.9998 22.458C12.433 22.458 9.5415 19.5665 9.5415 15.9997C9.54155 12.4329 12.433 9.54134 15.9998 9.54134Z" fill="white"/>
</svg>
