<svg width="32" height="32" viewBox="0 0 32 32" fill="none" xmlns="http://www.w3.org/2000/svg">
<path d="M0 10C0 4.47715 4.47715 0 10 0H22C27.5228 0 32 4.47715 32 10V22C32 27.5228 27.5228 32 22 32H10C4.47715 32 0 27.5228 0 22V10Z" fill="#FF6262"/>
<path d="M7.0415 15.9997C7.04157 11.6651 10.1195 8.05048 14.2087 7.22036C14.5469 7.1517 14.8772 7.37043 14.946 7.70864C15.0146 8.04688 14.7959 8.37723 14.4577 8.44595C10.9395 9.16009 8.29157 12.2712 8.2915 15.9997C8.2915 20.2569 11.7426 23.708 15.9998 23.708C19.7283 23.708 22.8402 21.06 23.5544 17.5418C23.6232 17.2037 23.9527 16.9857 24.2909 17.0543C24.6291 17.1231 24.8478 17.4526 24.7791 17.7908C23.949 21.8801 20.3345 24.958 15.9998 24.958C11.0523 24.958 7.0415 20.9472 7.0415 15.9997Z" fill="white"/>
<path d="M24.7751 8.10835L18.342 14.5415L20.9998 14.5415C21.345 14.5415 21.6248 14.8213 21.6248 15.1665C21.6248 15.5116 21.345 15.7915 20.9998 15.7915L16.8332 15.7915C16.488 15.7915 16.2082 15.5116 16.2082 15.1665L16.2082 10.9998C16.2082 10.6546 16.488 10.3748 16.8332 10.3748C17.1783 10.3748 17.4582 10.6546 17.4582 10.9998L17.4582 13.6577L23.8913 7.22456C24.1354 6.98048 24.531 6.98048 24.7751 7.22456C25.0191 7.46864 25.0191 7.86427 24.7751 8.10835Z" fill="white"/>
</svg>
