<svg width="32" height="32" viewBox="0 0 32 32" fill="none" xmlns="http://www.w3.org/2000/svg">
<path d="M0 10C0 4.47715 4.47715 0 10 0H22C27.5228 0 32 4.47715 32 10V22C32 27.5228 27.5228 32 22 32H10C4.47715 32 0 27.5228 0 22V10Z" fill="#FF9D57"/>
<path d="M14.6744 8.10865C15.4066 7.37654 16.5936 7.37654 17.3258 8.10865L23.8915 14.6744C24.6236 15.4066 24.6236 16.5936 23.8915 17.3258L17.3258 23.8915C16.5936 24.6236 15.4066 24.6236 14.6744 23.8915L8.10865 17.3258C7.37654 16.5936 7.37654 15.4066 8.10865 14.6744L14.6744 8.10865ZM16.442 8.99244C16.1979 8.74849 15.8022 8.74849 15.5582 8.99244L8.99244 15.5582C8.74849 15.8022 8.74849 16.1979 8.99244 16.442L15.5582 23.0077C15.8022 23.2517 16.1979 23.2517 16.442 23.0077L23.0077 16.442C23.2517 16.1979 23.2517 15.8022 23.0077 15.5582L16.442 8.99244Z" fill="white"/>
<path d="M17.8751 16.0001C17.8751 14.9646 17.0356 14.1251 16.0001 14.1251C14.9646 14.1251 14.1251 14.9646 14.1251 16.0001C14.1251 17.0356 14.9646 17.8751 16.0001 17.8751C17.0356 17.8751 17.8751 17.0356 17.8751 16.0001ZM19.1251 16.0001C19.1251 17.726 17.726 19.1251 16.0001 19.1251C14.2742 19.1251 12.8751 17.726 12.8751 16.0001C12.8751 14.2742 14.2742 12.8751 16.0001 12.8751C17.726 12.8751 19.1251 14.2742 19.1251 16.0001Z" fill="white"/>
</svg>
