<svg width="32" height="32" viewBox="0 0 32 32" fill="none" xmlns="http://www.w3.org/2000/svg">
<path d="M0 10C0 4.47715 4.47715 0 10 0H22C27.5228 0 32 4.47715 32 10V22C32 27.5228 27.5228 32 22 32H10C4.47715 32 0 27.5228 0 22V10Z" fill="#FF9D57"/>
<path d="M14.6744 8.10865C15.4066 7.37654 16.5936 7.37654 17.3258 8.10865L23.8915 14.6744C24.6236 15.4066 24.6236 16.5936 23.8915 17.3258L17.3258 23.8915C16.5936 24.6236 15.4066 24.6236 14.6744 23.8915L8.10865 17.3258C7.37654 16.5936 7.37654 15.4066 8.10865 14.6744L14.6744 8.10865ZM16.442 8.99244C16.1979 8.74849 15.8022 8.74849 15.5582 8.99244L8.99244 15.5582C8.74849 15.8022 8.74849 16.1979 8.99244 16.442L15.5582 23.0077C15.8022 23.2517 16.1979 23.2517 16.442 23.0077L23.0077 16.442C23.2517 16.1979 23.2517 15.8022 23.0077 15.5582L16.442 8.99244Z" fill="white"/>
<path d="M15.3751 18.5001V16.6251H13.5001C13.1549 16.6251 12.8751 16.3453 12.8751 16.0001C12.8751 15.6549 13.1549 15.3751 13.5001 15.3751H15.3751V13.5001C15.3751 13.1549 15.6549 12.8751 16.0001 12.8751C16.3453 12.8751 16.6251 13.1549 16.6251 13.5001V15.3751H18.5001C18.8453 15.3751 19.1251 15.6549 19.1251 16.0001C19.1251 16.3453 18.8453 16.6251 18.5001 16.6251H16.6251V18.5001C16.6251 18.8453 16.3453 19.1251 16.0001 19.1251C15.6549 19.1251 15.3751 18.8453 15.3751 18.5001Z" fill="white"/>
</svg>
