<svg width="32" height="32" viewBox="0 0 32 32" fill="none" xmlns="http://www.w3.org/2000/svg">
<path d="M0 10C0 4.47715 4.47715 0 10 0H22C27.5228 0 32 4.47715 32 10V22C32 27.5228 27.5228 32 22 32H10C4.47715 32 0 27.5228 0 22V10Z" fill="#FF9D57"/>
<path d="M14.6744 8.10865C15.4066 7.37654 16.5936 7.37654 17.3258 8.10865L23.8915 14.6744C24.6236 15.4066 24.6236 16.5936 23.8915 17.3258L17.3258 23.8915C16.5936 24.6236 15.4066 24.6236 14.6744 23.8915L8.10865 17.3258C7.37654 16.5936 7.37654 15.4066 8.10865 14.6744L14.6744 8.10865ZM16.442 8.99244C16.1979 8.74849 15.8022 8.74849 15.5582 8.99244L8.99244 15.5582C8.74849 15.8022 8.74849 16.1979 8.99244 16.442L15.5582 23.0077C15.8022 23.2517 16.1979 23.2517 16.442 23.0077L23.0077 16.442C23.2517 16.1979 23.2517 15.8022 23.0077 15.5582L16.442 8.99244Z" fill="white"/>
<path d="M17.6415 13.4749C17.8856 13.2308 18.2812 13.2308 18.5253 13.4749C18.7694 13.7189 18.7694 14.1146 18.5253 14.3587L16.8839 16.0001L18.5253 17.6415C18.7694 17.8856 18.7694 18.2812 18.5253 18.5253C18.2812 18.7694 17.8856 18.7694 17.6415 18.5253L16.0001 16.8839L14.3587 18.5253C14.1146 18.7694 13.7189 18.7694 13.4749 18.5253C13.2308 18.2812 13.2308 17.8856 13.4749 17.6415L15.1163 16.0001L13.4749 14.3587C13.2308 14.1146 13.2308 13.7189 13.4749 13.4749C13.7189 13.2308 14.1146 13.2308 14.3587 13.4749L16.0001 15.1163L17.6415 13.4749Z" fill="white"/>
</svg>
