<svg width="32" height="32" viewBox="0 0 32 32" fill="none" xmlns="http://www.w3.org/2000/svg">
<path d="M0 10C0 4.47715 4.47715 0 10 0H22C27.5228 0 32 4.47715 32 10V22C32 27.5228 27.5228 32 22 32H10C4.47715 32 0 27.5228 0 22V10Z" fill="#39CC7E"/>
<path d="M18.0832 15.3748C18.0832 15.1447 17.8966 14.9582 17.6665 14.9582H17.2498V15.7915H17.6665C17.8966 15.7915 18.0832 15.605 18.0832 15.3748ZM19.3332 15.3748C19.3332 16.2953 18.587 17.0415 17.6665 17.0415H17.2498V17.6665C17.2498 18.0117 16.97 18.2915 16.6248 18.2915C16.2797 18.2915 15.9998 18.0117 15.9998 17.6665V14.3332C15.9998 13.988 16.2797 13.7082 16.6248 13.7082H17.6665C18.587 13.7082 19.3332 14.4544 19.3332 15.3748Z" fill="white"/>
<path fill-rule="evenodd" clip-rule="evenodd" d="M11.0579 16.5698C11.0628 16.5592 11.068 16.5488 11.0735 16.5385L11.0579 16.5698ZM14.6761 16.5385C14.6816 16.5488 14.6869 16.5592 14.6918 16.5698L14.6761 16.5385Z" fill="white"/>
<path d="M20.1665 17.6665V14.3332C20.1665 13.988 20.4463 13.7082 20.7915 13.7082C21.1367 13.7082 21.4165 13.988 21.4165 14.3332V17.6665C21.4165 18.0117 21.1367 18.2915 20.7915 18.2915C20.4463 18.2915 20.1665 18.0117 20.1665 17.6665Z" fill="white"/>
<path d="M23.7082 11.8332C23.7082 9.87716 22.1225 8.2915 20.1665 8.2915H11.8332C9.87716 8.2915 8.2915 9.87716 8.2915 11.8332V20.1665C8.2915 22.1225 9.87716 23.7082 11.8332 23.7082H20.1665C22.1225 23.7082 23.7082 22.1225 23.7082 20.1665V11.8332ZM24.9582 20.1665C24.9582 22.8129 22.8129 24.9582 20.1665 24.9582H11.8332C9.18681 24.9582 7.0415 22.8129 7.0415 20.1665V11.8332C7.0415 9.18681 9.18681 7.0415 11.8332 7.0415H20.1665C22.8129 7.0415 24.9582 9.18681 24.9582 11.8332V20.1665Z" fill="white"/>
<path fill-rule="evenodd" clip-rule="evenodd" d="M11.0735 16.5385L11.0579 16.5698L10.6491 17.3874C10.495 17.696 10.6204 18.0713 10.929 18.2256C11.2377 18.3797 11.6129 18.2543 11.7673 17.9456L12.011 17.4582H13.7387L13.9824 17.9456C14.1367 18.2543 14.512 18.3797 14.8206 18.2256C15.1293 18.0713 15.2547 17.696 15.1006 17.3874L14.6918 16.5698L14.6761 16.5385L13.4339 14.054C13.328 13.8423 13.1116 13.7082 12.8748 13.7082C12.6381 13.7082 12.4216 13.8423 12.3158 14.054L11.0735 16.5385ZM12.8748 15.7305L13.1137 16.2082H12.636L12.8748 15.7305Z" fill="white"/>
</svg>
