<svg width="32" height="32" viewBox="0 0 32 32" fill="none" xmlns="http://www.w3.org/2000/svg">
<path d="M0 10C0 4.47715 4.47715 0 10 0H22C27.5228 0 32 4.47715 32 10V22C32 27.5228 27.5228 32 22 32H10C4.47715 32 0 27.5228 0 22V10Z" fill="#39CC7E"/>
<path d="M7.0415 15.9997C7.04157 11.6651 10.1195 8.05052 14.2087 7.22041C14.5469 7.15175 14.8772 7.37048 14.946 7.70869C15.0146 8.04693 14.7959 8.37727 14.4577 8.44599C10.9395 9.16014 8.29157 12.2713 8.2915 15.9997C8.2915 20.2569 11.7426 23.708 15.9998 23.708C19.7283 23.708 22.8402 21.0601 23.5544 17.5419C23.6232 17.2038 23.9527 16.9858 24.2909 17.0544C24.6291 17.1231 24.8478 17.4526 24.7791 17.7909C23.949 21.8802 20.3345 24.958 15.9998 24.958C11.0523 24.958 7.0415 20.9473 7.0415 15.9997Z" fill="white"/>
<path d="M20.1665 8.2915H22.8244L16.3913 14.7246C16.1472 14.9687 16.1472 15.3643 16.3913 15.6084C16.6354 15.8525 17.031 15.8525 17.2751 15.6084L23.7082 9.17529V11.8332C23.7082 12.1783 23.988 12.4582 24.3332 12.4582C24.6783 12.4582 24.9582 12.1783 24.9582 11.8332V7.6665C24.9582 7.32133 24.6783 7.0415 24.3332 7.0415H20.1665C19.8213 7.0415 19.5415 7.32133 19.5415 7.6665C19.5415 8.01168 19.8213 8.2915 20.1665 8.2915Z" fill="white"/>
</svg>
