<svg width="32" height="32" viewBox="0 0 32 32" fill="none" xmlns="http://www.w3.org/2000/svg">
<path d="M0 10C0 4.47715 4.47715 0 10 0H22C27.5228 0 32 4.47715 32 10V22C32 27.5228 27.5228 32 22 32H10C4.47715 32 0 27.5228 0 22V10Z" fill="#39CC7E"/>
<path d="M21.3918 18.8913C21.6358 18.6472 22.0315 18.6472 22.2756 18.8913L24.1864 20.8021C24.7558 21.3716 24.7558 22.2948 24.1864 22.8643L22.2756 24.7751C22.0315 25.0191 21.6358 25.0191 21.3918 24.7751C21.1477 24.531 21.1477 24.1354 21.3918 23.8913L22.8249 22.4582H18.5003C18.1551 22.4582 17.8753 22.1783 17.8753 21.8332C17.8753 21.488 18.1551 21.2082 18.5003 21.2082H22.8249L21.3918 19.7751C21.1477 19.531 21.1477 19.1354 21.3918 18.8913Z" fill="white"/>
<path fill-rule="evenodd" clip-rule="evenodd" d="M8.31696 15.3748C8.5532 12.4306 10.4438 9.95318 13.0585 8.87274C12.8523 9.16885 12.6642 9.49006 12.4953 9.82796C11.7605 11.2975 11.2961 13.2416 11.2198 15.3748H8.31696ZM12.4707 15.3748C12.5466 13.4044 12.9778 11.6584 13.6134 10.387C14.3342 8.94545 15.214 8.2915 16.0003 8.2915C16.7867 8.2915 17.6664 8.94545 18.3872 10.387C19.0229 11.6584 19.4541 13.4044 19.53 15.3748H12.4707ZM20.167 16.6248H12.4707C12.5466 18.5952 12.9778 20.3413 13.6134 21.6126C14.3342 23.0542 15.214 23.7082 16.0003 23.7082C16.3455 23.7082 16.6253 23.988 16.6253 24.3332C16.6253 24.6783 16.3455 24.9582 16.0003 24.9582C11.0528 24.9582 7.04199 20.9474 7.04199 15.9998C7.04199 11.0523 11.0528 7.0415 16.0003 7.0415C20.9479 7.0415 24.9587 11.0523 24.9587 15.9998C24.9587 16.345 24.6788 16.6248 24.3337 16.6248H20.167ZM18.9421 8.87274C21.5568 9.95318 23.4474 12.4306 23.6837 15.3748H20.7809C20.7045 13.2416 20.2401 11.2975 19.5054 9.82796C19.3364 9.49006 19.1483 9.16885 18.9421 8.87274ZM11.2198 16.6248H8.31696C8.5532 19.569 10.4438 22.0465 13.0585 23.1269C12.8523 22.8308 12.6642 22.5096 12.4953 22.1717C11.7605 20.7022 11.2961 18.7581 11.2198 16.6248Z" fill="white"/>
</svg>
