<svg width="32" height="32" viewBox="0 0 32 32" fill="none" xmlns="http://www.w3.org/2000/svg">
<path d="M0 10C0 4.47715 4.47715 0 10 0H22C27.5228 0 32 4.47715 32 10V22C32 27.5228 27.5228 32 22 32H10C4.47715 32 0 27.5228 0 22V10Z" fill="#39CC7E"/>
<path d="M23.7082 15.9998C23.7082 11.7426 20.257 8.2915 15.9998 8.2915C11.7426 8.2915 8.2915 11.7426 8.2915 15.9998C8.2915 20.257 11.7426 23.7082 15.9998 23.7082C20.257 23.7082 23.7082 20.257 23.7082 15.9998ZM24.9582 15.9998C24.9582 20.9474 20.9474 24.9582 15.9998 24.9582C11.0523 24.9582 7.0415 20.9474 7.0415 15.9998C7.0415 11.0523 11.0523 7.0415 15.9998 7.0415C20.9474 7.0415 24.9582 11.0523 24.9582 15.9998Z" fill="white"/>
</svg>
