<svg width="32" height="32" viewBox="0 0 32 32" fill="none" xmlns="http://www.w3.org/2000/svg">
<path d="M0 10C0 4.47715 4.47715 0 10 0H22C27.5228 0 32 4.47715 32 10V22C32 27.5228 27.5228 32 22 32H10C4.47715 32 0 27.5228 0 22V10Z" fill="#39CC7E"/>
<path d="M22.4582 17.2498C22.4582 13.683 19.5667 10.7915 15.9998 10.7915C12.433 10.7915 9.5415 13.683 9.5415 17.2498C9.5415 20.8167 12.433 23.7082 15.9998 23.7082C19.5667 23.7082 22.4582 20.8167 22.4582 17.2498ZM23.7082 17.2498C23.7082 21.507 20.257 24.9582 15.9998 24.9582C11.7426 24.9582 8.2915 21.507 8.2915 17.2498C8.2915 12.9926 11.7426 9.5415 15.9998 9.5415C20.257 9.5415 23.7082 12.9926 23.7082 17.2498Z" fill="white"/>
<path d="M15.3748 17.2498V13.0832C15.3748 12.738 15.6547 12.4582 15.9998 12.4582C16.345 12.4582 16.6248 12.738 16.6248 13.0832V17.2498C16.6248 17.595 16.345 17.8748 15.9998 17.8748C15.6547 17.8748 15.3748 17.595 15.3748 17.2498Z" fill="white"/>
<path d="M18.4998 7.0415C18.845 7.0415 19.1248 7.32133 19.1248 7.6665C19.1248 8.01168 18.845 8.2915 18.4998 8.2915H13.4998C13.1547 8.2915 12.8748 8.01168 12.8748 7.6665C12.8748 7.32133 13.1547 7.0415 13.4998 7.0415H18.4998Z" fill="white"/>
</svg>
