<svg width="32" height="32" viewBox="0 0 32 32" fill="none" xmlns="http://www.w3.org/2000/svg">
<path d="M0 10C0 4.47715 4.47715 0 10 0H22C27.5228 0 32 4.47715 32 10V22C32 27.5228 27.5228 32 22 32H10C4.47715 32 0 27.5228 0 22V10Z" fill="#24B0FB"/>
<path d="M19.1248 11.4165C19.1248 9.69061 17.7257 8.2915 15.9998 8.2915C14.2739 8.2915 12.8748 9.69061 12.8748 11.4165C12.8748 13.1424 14.2739 14.5415 15.9998 14.5415C17.7257 14.5415 19.1248 13.1424 19.1248 11.4165ZM20.3748 11.4165C20.3748 13.8327 18.4161 15.7915 15.9998 15.7915C13.5836 15.7915 11.6248 13.8327 11.6248 11.4165C11.6248 9.00026 13.5836 7.0415 15.9998 7.0415C18.4161 7.0415 20.3748 9.00026 20.3748 11.4165Z" fill="white"/>
<path d="M21.2082 20.9998C21.2082 20.4005 20.7774 19.736 19.8149 19.1859C18.8698 18.6458 17.5221 18.2915 15.9998 18.2915C14.4776 18.2915 13.1298 18.6458 12.1847 19.1859C11.2223 19.736 10.7915 20.4005 10.7915 20.9998C10.7915 21.5991 11.2223 22.2637 12.1847 22.8138C13.1298 23.3539 14.4776 23.7082 15.9998 23.7082C17.5221 23.7082 18.8698 23.3539 19.8149 22.8138C20.7774 22.2637 21.2082 21.5991 21.2082 20.9998ZM22.4582 20.9998C22.4582 22.2413 21.5834 23.2431 20.4351 23.8994C19.2689 24.5658 17.6993 24.9582 15.9998 24.9582C14.3004 24.9582 12.7308 24.5658 11.5646 23.8994C10.4163 23.2431 9.5415 22.2413 9.5415 20.9998C9.5415 19.7584 10.4163 18.7565 11.5646 18.1003C12.7308 17.4339 14.3004 17.0415 15.9998 17.0415C17.6993 17.0415 19.2689 17.4339 20.4351 18.1003C21.5834 18.7565 22.4582 19.7584 22.4582 20.9998Z" fill="white"/>
</svg>
