<svg width="32" height="32" viewBox="0 0 32 32" fill="none" xmlns="http://www.w3.org/2000/svg">
<path d="M0 10C0 4.47715 4.47715 0 10 0H22C27.5228 0 32 4.47715 32 10V22C32 27.5228 27.5228 32 22 32H10C4.47715 32 0 27.5228 0 22V10Z" fill="#24B0FB"/>
<path d="M23.7082 14.9117C23.7081 14.4772 23.3558 14.1249 22.9212 14.1248H22.8081C22.0404 14.1247 21.4107 13.6552 21.0715 13.0709C20.7294 12.4817 20.6437 11.7054 21.0267 11.0421L21.0837 10.9436C21.3011 10.5671 21.172 10.0853 20.7956 9.86779L18.9149 8.78136C18.537 8.56315 18.0533 8.69324 17.835 9.07108L17.778 9.17036C17.3943 9.83417 16.6765 10.1437 15.9998 10.1437C15.3225 10.1437 14.6045 9.83319 14.2209 9.16873L14.1639 9.07026C13.9458 8.6929 13.4631 8.56354 13.0856 8.78136L11.2041 9.86779C10.8275 10.0853 10.6987 10.5669 10.916 10.9436L10.973 11.0421C11.3558 11.7054 11.2698 12.4818 10.9282 13.0709C10.5892 13.6557 9.95927 14.1247 9.19157 14.1248H9.07845C8.64387 14.1249 8.29158 14.4772 8.2915 14.9117V17.0878C8.29155 17.5224 8.64385 17.8747 9.07845 17.8748H9.19157C9.95927 17.8749 10.5891 18.344 10.9282 18.9287C11.2698 19.5177 11.3557 20.2942 10.973 20.9575L10.916 21.0559C10.6985 21.433 10.8279 21.9149 11.2049 22.1326L13.0856 23.219C13.4629 23.4367 13.9453 23.3073 14.1631 22.9301L14.2201 22.8317C14.604 22.1661 15.3227 21.8567 15.9998 21.8567C16.6759 21.8567 17.3941 22.1654 17.778 22.83L17.835 22.9293C18.0533 23.3073 18.5369 23.4365 18.9149 23.2182L20.7948 22.1326C21.1717 21.9149 21.3013 21.4329 21.0837 21.0559L21.0267 20.9575C20.6437 20.2942 20.7293 19.5179 21.0715 18.9287C21.4107 18.3444 22.0404 17.8749 22.8081 17.8748H22.9212C23.3558 17.8747 23.7081 17.5224 23.7082 17.0878V14.9117ZM24.9582 17.0878C24.9581 18.2128 24.0462 19.1247 22.9212 19.1248H22.8081C22.5741 19.1249 22.3159 19.2741 22.1522 19.5561C21.9908 19.8341 21.9906 20.1273 22.109 20.3325L22.166 20.4309C22.7289 21.4058 22.3945 22.6521 21.4198 23.215L19.5399 24.3006C18.5641 24.864 17.3162 24.5301 16.7526 23.5543L16.6956 23.455C16.579 23.253 16.3246 23.1067 15.9998 23.1067C15.6744 23.1067 15.4194 23.2538 15.3024 23.4567L15.2463 23.5543C14.6835 24.53 13.4361 24.8644 12.4606 24.3014L10.5799 23.215C9.60519 22.6521 9.27112 21.4058 9.83366 20.4309L9.88981 20.3325C10.0082 20.1273 10.008 19.8343 9.84668 19.5561C9.68322 19.2742 9.42558 19.1249 9.19157 19.1248H9.07845C7.9535 19.1247 7.04155 18.2128 7.0415 17.0878V14.9117C7.04158 13.7868 7.95351 12.8749 9.07845 12.8748H9.19157C9.42555 12.8747 9.68328 12.7253 9.84668 12.4435C10.0079 12.1652 10.0082 11.8722 9.88981 11.6671L9.83366 11.5686C9.2711 10.5941 9.60465 9.34817 10.5791 8.78543L12.4606 7.69901C13.436 7.13597 14.683 7.47005 15.2463 8.44526L15.3032 8.54373C15.4204 8.74671 15.6755 8.89367 15.9998 8.89367C16.3239 8.89367 16.5786 8.74712 16.6956 8.54455L16.7526 8.44526C17.3162 7.46982 18.5643 7.13565 19.5399 7.69901L21.4206 8.78543C22.3949 9.3482 22.7286 10.5942 22.166 11.5686L22.109 11.6671C21.9906 11.8723 21.9915 12.1654 22.153 12.4435C22.3167 12.7254 22.5741 12.8747 22.8081 12.8748H22.9212C24.0462 12.8749 24.9581 13.7868 24.9582 14.9117V17.0878Z" fill="white"/>
<path d="M17.8748 16.0002C17.8748 14.9646 17.0354 14.1252 15.9998 14.1252C14.9643 14.1252 14.1248 14.9646 14.1248 16.0002C14.1248 17.0357 14.9643 17.8752 15.9998 17.8752C17.0354 17.8752 17.8748 17.0357 17.8748 16.0002ZM19.1248 16.0002C19.1248 17.726 17.7257 19.1252 15.9998 19.1252C14.2739 19.1252 12.8748 17.726 12.8748 16.0002C12.8748 14.2743 14.2739 12.8752 15.9998 12.8752C17.7257 12.8752 19.1248 14.2743 19.1248 16.0002Z" fill="white"/>
</svg>
