<svg width="32" height="32" viewBox="0 0 32 32" fill="none" xmlns="http://www.w3.org/2000/svg">
<path d="M0 10C0 4.47715 4.47715 0 10 0H22C27.5228 0 32 4.47715 32 10V22C32 27.5228 27.5228 32 22 32H10C4.47715 32 0 27.5228 0 22V10Z" fill="#24B0FB"/>
<path d="M23.7087 12.6665C23.7087 10.2503 21.7499 8.2915 19.3337 8.2915H12.667C10.2507 8.2915 8.29199 10.2503 8.29199 12.6665V19.3332C8.29199 21.7494 10.2507 23.7082 12.667 23.7082H19.3337C21.7499 23.7082 23.7087 21.7494 23.7087 19.3332V12.6665ZM24.9587 19.3332C24.9587 22.4398 22.4403 24.9582 19.3337 24.9582H12.667C9.56039 24.9582 7.04199 22.4398 7.04199 19.3332V12.6665C7.04199 9.5599 9.56039 7.0415 12.667 7.0415H19.3337C22.4403 7.0415 24.9587 9.5599 24.9587 12.6665V19.3332Z" fill="white"/>
<path d="M11.3918 13.0579C11.6358 12.8139 12.0315 12.8139 12.2756 13.0579L14.1864 14.9688C14.7558 15.5382 14.7558 16.4614 14.1864 17.0309L12.2756 18.9417C12.0315 19.1858 11.6358 19.1858 11.3918 18.9417C11.1477 18.6977 11.1477 18.302 11.3918 18.0579L13.3026 16.1471C13.3838 16.0658 13.3838 15.9339 13.3026 15.8525L11.3918 13.9417C11.1477 13.6977 11.1477 13.302 11.3918 13.0579Z" fill="white"/>
<path d="M20.167 17.8748C20.5122 17.8748 20.792 18.1547 20.792 18.4998C20.792 18.845 20.5122 19.1248 20.167 19.1248H16.8337C16.4885 19.1248 16.2087 18.845 16.2087 18.4998C16.2087 18.1547 16.4885 17.8748 16.8337 17.8748H20.167Z" fill="white"/>
</svg>
