<svg width="32" height="32" viewBox="0 0 32 32" fill="none" xmlns="http://www.w3.org/2000/svg">
<path d="M0 10C0 4.47715 4.47715 0 10 0H22C27.5228 0 32 4.47715 32 10V22C32 27.5228 27.5228 32 22 32H10C4.47715 32 0 27.5228 0 22V10Z" fill="#24B0FB"/>
<path fill-rule="evenodd" clip-rule="evenodd" d="M24.8992 21.2653C24.937 21.1848 24.9582 21.0949 24.9582 21C24.9582 20.9051 24.937 20.8152 24.8992 20.7347C24.9778 20.9023 24.9778 21.0977 24.8992 21.2653Z" fill="white"/>
<path d="M7.0415 12.6667V19.3333C7.0415 21.9797 9.18681 24.125 11.8332 24.125H15.1665C15.5117 24.125 15.7915 23.8452 15.7915 23.5C15.7915 23.1548 15.5117 22.875 15.1665 22.875H11.8332C9.87716 22.875 8.2915 21.2893 8.2915 19.3333V12.6667C8.2915 10.7107 9.87716 9.125 11.8332 9.125H20.1665C22.1225 9.125 23.7082 10.7107 23.7082 12.6667V16.8333C23.7082 17.1785 23.988 17.4583 24.3332 17.4583C24.6783 17.4583 24.9582 17.1785 24.9582 16.8333V12.6667C24.9582 10.0203 22.8129 7.875 20.1665 7.875H11.8332C9.18681 7.875 7.0415 10.0203 7.0415 12.6667Z" fill="white"/>
<path d="M19.7759 13.8451C20.0454 13.6294 20.4392 13.6732 20.6548 13.9427C20.8704 14.2122 20.8267 14.606 20.5571 14.8216L17.9521 16.9049C16.8108 17.818 15.1888 17.818 14.0475 16.9049L11.4425 14.8216C11.173 14.606 11.1293 14.2122 11.3449 13.9427C11.5605 13.6732 11.9543 13.6294 12.2238 13.8451L14.8288 15.9292C15.5135 16.4769 16.4862 16.4769 17.1709 15.9292L19.7759 13.8451Z" fill="white"/>
<path d="M22.2751 18.0581C22.031 17.814 21.6354 17.814 21.3913 18.0581C21.1472 18.3022 21.1472 18.6978 21.3913 18.9419L22.8244 20.375H18.4998C18.1547 20.375 17.8748 20.6548 17.8748 21C17.8748 21.3452 18.1547 21.625 18.4998 21.625H22.8244L21.3913 23.0581C21.1472 23.3022 21.1472 23.6978 21.3913 23.9419C21.6354 24.186 22.031 24.186 22.2751 23.9419L24.7751 21.4419C25.0191 21.1978 25.0191 20.8022 24.7751 20.5581L22.2751 18.0581Z" fill="white"/>
</svg>
