<svg width="32" height="32" viewBox="0 0 32 32" fill="none" xmlns="http://www.w3.org/2000/svg">
<path d="M0 10C0 4.47715 4.47715 0 10 0H22C27.5228 0 32 4.47715 32 10V22C32 27.5228 27.5228 32 22 32H10C4.47715 32 0 27.5228 0 22V10Z" fill="#24B0FB"/>
<path d="M23.7087 12.6665C23.7087 10.2503 21.7499 8.2915 19.3337 8.2915H12.667C10.2507 8.2915 8.29199 10.2503 8.29199 12.6665V19.3332C8.29199 21.7494 10.2507 23.7082 12.667 23.7082H19.3337C21.7499 23.7082 23.7087 21.7494 23.7087 19.3332V12.6665ZM24.9587 19.3332C24.9587 22.4398 22.4403 24.9582 19.3337 24.9582H12.667C9.56039 24.9582 7.04199 22.4398 7.04199 19.3332V12.6665C7.04199 9.5599 9.56039 7.0415 12.667 7.0415H19.3337C22.4403 7.0415 24.9587 9.5599 24.9587 12.6665V19.3332Z" fill="white"/>
<path fill-rule="evenodd" clip-rule="evenodd" d="M10.0045 13.3183C9.97495 13.2457 9.95866 13.1664 9.95866 13.0832C9.95866 12.9883 9.97981 12.8984 10.0177 12.8178C9.94422 12.9753 9.93949 13.1581 10.0045 13.3183Z" fill="white"/>
<path fill-rule="evenodd" clip-rule="evenodd" d="M21.9829 12.8177C22.0616 12.9854 22.0616 13.1809 21.9829 13.3487C22.0208 13.2681 22.042 13.1781 22.042 13.0832C22.042 12.9882 22.0208 12.8983 21.9829 12.8177Z" fill="white"/>
<path d="M11.8084 10.9746C12.0525 10.7305 12.4481 10.7305 12.6922 10.9746C12.9363 11.2187 12.9363 11.6143 12.6922 11.8584L12.0924 12.4582H12.667C14.0666 12.4582 15.2965 13.1845 16.0003 14.2808C16.7042 13.1845 17.9341 12.4582 19.3337 12.4582H19.9082L19.3084 11.8584C19.0644 11.6143 19.0644 11.2187 19.3084 10.9746C19.5525 10.7305 19.9481 10.7305 20.1922 10.9746L21.8589 12.6413C22.103 12.8854 22.103 13.281 21.8589 13.5251L20.1922 15.1917C19.9481 15.4358 19.5525 15.4358 19.3084 15.1917C19.0644 14.9477 19.0644 14.552 19.3084 14.3079L19.9082 13.7082H19.3337C17.8379 13.7082 16.6253 14.9207 16.6253 16.4165V20.5832C16.6253 20.9283 16.3455 21.2082 16.0003 21.2082C15.6551 21.2082 15.3753 20.9283 15.3753 20.5832V16.4165C15.3753 14.9207 14.1628 13.7082 12.667 13.7082H12.0924L12.6922 14.3079C12.9363 14.552 12.9363 14.9477 12.6922 15.1917C12.4481 15.4358 12.0525 15.4358 11.8084 15.1917L10.1418 13.5251C10.0852 13.4685 10.0417 13.4038 10.0114 13.3347C10.009 13.3293 10.0067 13.3238 10.0045 13.3183C9.93949 13.1581 9.94422 12.9753 10.0177 12.8178C10.0476 12.7539 10.089 12.6941 10.1418 12.6413L11.8084 10.9746Z" fill="white"/>
</svg>
