<svg width="32" height="32" viewBox="0 0 32 32" fill="none" xmlns="http://www.w3.org/2000/svg">
<path d="M0 10C0 4.47715 4.47715 0 10 0H22C27.5228 0 32 4.47715 32 10V22C32 27.5228 27.5228 32 22 32H10C4.47715 32 0 27.5228 0 22V10Z" fill="#24B0FB"/>
<path d="M19.1247 11.6248C19.1247 9.78389 17.6323 8.2915 15.7913 8.2915C13.9504 8.2915 12.458 9.78389 12.458 11.6248C12.458 12.1972 12.6015 12.7344 12.8543 13.2036C13.0179 13.5074 12.9048 13.8861 12.6012 14.05C12.2974 14.2137 11.9178 14.0999 11.7541 13.7961C11.4055 13.1492 11.208 12.4092 11.208 11.6248C11.208 9.09353 13.26 7.0415 15.7913 7.0415C18.3226 7.0415 20.3747 9.09353 20.3747 11.6248C20.3747 12.4092 20.1771 13.1492 19.8286 13.7961C19.6649 14.0999 19.2853 14.2137 18.9814 14.05C18.6778 13.8861 18.5647 13.5074 18.7284 13.2036C18.9812 12.7344 19.1247 12.1972 19.1247 11.6248Z" fill="white"/>
<path d="M17.8747 11.6248C17.8747 10.4742 16.9419 9.5415 15.7913 9.5415C14.6407 9.5415 13.708 10.4742 13.708 11.6248V18.582L12.1797 17.5632L12.1723 17.5584L12.1642 17.5526C12.1611 17.5506 12.1574 17.5483 12.1531 17.5458C12.1484 17.543 12.1431 17.5399 12.1374 17.5363C12.1154 17.5225 12.0847 17.5034 12.047 17.481C11.9717 17.4362 11.8655 17.3756 11.7435 17.3149C11.5318 17.2096 11.1551 17.0415 10.7913 17.0415C9.64075 17.0415 8.70801 17.9742 8.70801 19.1248C8.70801 19.6843 8.91082 20.2196 9.31219 20.6129C9.31765 20.6183 9.32324 20.6236 9.32894 20.6287L13.1978 24.1452C13.773 24.6681 14.5224 24.9582 15.2998 24.9582H19.333C21.5191 24.9582 23.2913 23.186 23.2913 20.9998V19.4967C23.2912 17.6596 22.0272 16.0637 20.2388 15.6434L17.8747 15.0876V11.6248ZM11.4831 18.6011L13.9863 20.2699C14.1781 20.3977 14.4244 20.4094 14.6276 20.3008C14.8308 20.192 14.958 19.9803 14.958 19.7498V11.6248C14.958 11.1646 15.3311 10.7915 15.7913 10.7915C16.2516 10.7915 16.6247 11.1646 16.6247 11.6248V15.5832C16.6247 15.8732 16.8241 16.1255 17.1064 16.1919L19.9523 16.8608C21.1759 17.1484 22.0412 18.2398 22.0413 19.4967V20.9998C22.0413 22.4956 20.8288 23.7082 19.333 23.7082H15.2998C14.8334 23.7082 14.3835 23.5344 14.0384 23.2207L10.1875 19.7198C10.0486 19.5837 9.95801 19.3814 9.95801 19.1248C9.95801 18.6646 10.3311 18.2915 10.7913 18.2915C10.7913 18.2915 10.803 18.2918 10.8296 18.2972C10.8554 18.3024 10.8884 18.3108 10.9281 18.3241C11.0086 18.351 11.0981 18.3906 11.1868 18.4347C11.274 18.4781 11.352 18.5218 11.4082 18.5552C11.4361 18.5717 11.4583 18.5853 11.4725 18.5942L11.4831 18.6011Z" fill="white"/>
</svg>
