<svg width="32" height="32" viewBox="0 0 32 32" fill="none" xmlns="http://www.w3.org/2000/svg">
<path d="M0 10C0 4.47715 4.47715 0 10 0H22C27.5228 0 32 4.47715 32 10V22C32 27.5228 27.5228 32 22 32H10C4.47715 32 0 27.5228 0 22V10Z" fill="#24B0FB"/>
<path d="M12.667 10.1999C12.0859 11.2315 11.232 12.0854 10.2004 12.6665C11.2318 13.2475 12.0859 14.1009 12.667 15.1323C13.248 14.1011 14.1016 13.2474 15.1328 12.6665C14.1014 12.0854 13.2479 11.2313 12.667 10.1999ZM17.0501 13.237C15.1097 13.719 13.6069 15.2705 13.1943 17.2384L13.1667 17.3288C13.086 17.5299 12.8898 17.6665 12.667 17.6665L12.5734 17.6584C12.3904 17.6262 12.2365 17.5012 12.1673 17.3288L12.1396 17.2384C11.7271 15.2705 10.2243 13.7191 8.28385 13.237L8.09505 13.1938C7.84564 13.1416 7.66701 12.9213 7.66699 12.6665C7.66699 12.4117 7.84566 12.1914 8.09505 12.1392C10.1263 11.7134 11.7138 10.1259 12.1396 8.09456C12.1919 7.84517 12.4121 7.66651 12.667 7.6665C12.9219 7.6665 13.142 7.8452 13.1943 8.09456C13.6201 10.1259 15.2077 11.7133 17.2389 12.1392C17.4883 12.1914 17.6669 12.4117 17.667 12.6665L17.6589 12.7601C17.6213 12.9737 17.4572 13.1481 17.2389 13.1938L17.0501 13.237Z" fill="white"/>
<path fill-rule="evenodd" clip-rule="evenodd" d="M11.4365 21.9536C12.3308 22.1411 13.045 22.7981 13.3156 23.6577C13.3402 23.7359 13.3628 23.8156 13.3799 23.897L13.4076 23.9881C13.478 24.1643 13.6349 24.2923 13.8218 24.325L13.917 24.3332C14.1441 24.3331 14.3442 24.1939 14.4264 23.9889L14.4541 23.897C14.4711 23.8157 14.493 23.7359 14.5176 23.6577C14.7636 22.8762 15.3767 22.2631 16.1582 22.0171L16.1802 22.0099C16.1924 22.0059 16.2045 22.0019 16.2168 21.9984L16.3975 21.9536C16.6516 21.9002 16.8337 21.6762 16.8337 21.4165C16.8337 21.1568 16.6516 20.9328 16.3975 20.8794C16.3161 20.8623 16.2364 20.8397 16.1582 20.8151C15.2987 20.5445 14.6416 19.8304 14.4541 18.936C14.4007 18.6819 14.1767 18.4998 13.917 18.4998C13.6573 18.4998 13.4332 18.6819 13.3799 18.936C13.1753 19.9118 12.4122 20.6749 11.4365 20.8794C11.1824 20.9328 11.0003 21.1568 11.0003 21.4165C11.0003 21.6762 11.1824 21.9002 11.4365 21.9536ZM13.917 20.6947C13.7102 20.9669 13.4674 21.2098 13.1951 21.4165C13.4672 21.6231 13.7103 21.8655 13.917 22.1375C14.1235 21.8656 14.3661 21.623 14.638 21.4165C14.366 21.2098 14.1236 20.9668 13.917 20.6947Z" fill="white"/>
<path d="M21.019 13.853C20.9757 13.6472 20.794 13.4998 20.5837 13.4998C20.3733 13.4998 20.1916 13.6472 20.1483 13.853C19.9243 14.9216 19.0887 15.7571 18.0202 15.9811C17.8144 16.0244 17.667 16.2061 17.667 16.4165C17.667 16.6269 17.8144 16.8085 18.0202 16.8519L18.2179 16.9007C19.1911 17.1809 19.9383 17.9781 20.1483 18.98L20.1711 19.054C20.2282 19.1965 20.3552 19.3001 20.5063 19.3267L20.5837 19.3332C20.7678 19.3332 20.9296 19.2202 20.9963 19.054L21.019 18.98C21.2294 17.9767 21.9783 17.1782 22.9535 16.8991L23.1471 16.8519C23.3272 16.814 23.4628 16.6701 23.4938 16.4938L23.5003 16.4165C23.5003 16.2061 23.353 16.0244 23.1471 15.9811C23.0818 15.9674 23.017 15.9513 22.9535 15.9331C21.9784 15.6539 21.2293 14.8562 21.019 13.853ZM19.9465 16.4165C20.1823 16.2286 20.3958 16.0151 20.5837 15.7793C20.7714 16.015 20.9844 16.2287 21.2201 16.4165C20.9846 16.6041 20.7713 16.8174 20.5837 17.0529C20.3959 16.8173 20.1821 16.6042 19.9465 16.4165Z" fill="white"/>
</svg>
