<svg width="32" height="32" viewBox="0 0 32 32" fill="none" xmlns="http://www.w3.org/2000/svg">
<path d="M0 10C0 4.47715 4.47715 0 10 0H22C27.5228 0 32 4.47715 32 10V22C32 27.5228 27.5228 32 22 32H10C4.47715 32 0 27.5228 0 22V10Z" fill="#24B0FB"/>
<path d="M7.875 20.1665V13.4998C7.875 10.8535 10.0203 8.70817 12.6667 8.70817V9.95817C10.7107 9.95817 9.125 11.5438 9.125 13.4998V20.1665C9.125 22.1225 10.7107 23.7082 12.6667 23.7082H19.3333C21.2893 23.7082 22.875 22.1225 22.875 20.1665V13.4998C22.875 11.5438 21.2893 9.95817 19.3333 9.95817V8.70817C21.9797 8.70817 24.125 10.8535 24.125 13.4998V20.1665C24.125 22.8129 21.9797 24.9582 19.3333 24.9582H12.6667C10.0203 24.9582 7.875 22.8129 7.875 20.1665Z" fill="white"/>
<path d="M19.3333 14.9582C19.6785 14.9582 19.9583 15.238 19.9583 15.5832C19.9583 15.9283 19.6785 16.2082 19.3333 16.2082H12.6667C12.3215 16.2082 12.0417 15.9283 12.0417 15.5832C12.0417 15.238 12.3215 14.9582 12.6667 14.9582H19.3333Z" fill="white"/>
<path d="M16.8333 18.2915C17.1785 18.2915 17.4583 18.5713 17.4583 18.9165C17.4583 19.2617 17.1785 19.5415 16.8333 19.5415H12.6667C12.3215 19.5415 12.0417 19.2617 12.0417 18.9165C12.0417 18.5713 12.3215 18.2915 12.6667 18.2915H16.8333Z" fill="white"/>
<path d="M18.7083 8.9165C18.7083 8.57133 18.4285 8.2915 18.0833 8.2915H13.9167C13.5715 8.2915 13.2917 8.57133 13.2917 8.9165V9.74984C13.2917 10.095 13.5715 10.3748 13.9167 10.3748H18.0833C18.4285 10.3748 18.7083 10.095 18.7083 9.74984V8.9165ZM19.9583 9.74984C19.9583 10.7854 19.1189 11.6248 18.0833 11.6248H13.9167C12.8811 11.6248 12.0417 10.7854 12.0417 9.74984V8.9165C12.0417 7.88097 12.8811 7.0415 13.9167 7.0415H18.0833C19.1189 7.0415 19.9583 7.88097 19.9583 8.9165V9.74984Z" fill="white"/>
</svg>
